<svg xmlns="http://www.w3.org/2000/svg" xmlns:xlink="http://www.w3.org/1999/xlink" class="railroad" viewBox="0 0 390 391">
<style>svg.railroad {
background-color: hsl(30, 20%, 95%);
background-size: 15px 15px;
background-image: linear-gradient(to right, rgba(30, 30, 30, .05) 1px, transparent 1px),
		  linear-gradient(to bottom, rgba(30, 30, 30, .05) 1px, transparent 1px);
}

svg.railroad rect.railroad_canvas {
stroke-width: 0px;
fill: none;
}

svg.railroad path {
stroke-width: 3px;
stroke: black;
fill: none;
}

svg.railroad .debug {
stroke-width: 1px;
stroke: red;
}

svg.railroad text {
font: 14px monospace;
text-anchor: middle;
}

svg.railroad .nonterminal text {
font-weight: bold;
}

svg.railroad text.comment {
font: italic 12px monospace;
}

svg.railroad rect {
stroke-width: 3px;
stroke: black;
fill:hsl(-290, 70%, 90%);
}

svg.railroad g.labeledbox > rect {
stroke-width: 1px;
stroke: grey;
stroke-dasharray: 5px;
fill:rgba(90, 90, 150, .1);
}
</style>
<rect width="100%" height="100%" class="railroad_canvas"/>
<g id="rule-expr" transform="translate(0, 0)">
<text x="10" y="18" style="font:bold 14px monospace">expr</text>
<g transform="translate(0, 24)">
<g class="sequence">
<path d=" M 10 34 a 5 5 0 0 1 5 -5 a 5 5 0 0 1 5 5 a 5 5 0 0 1 -5 5 a 5 5 0 0 1 -5 -5 m 10 0 h 5"/>
<g class="sequence">
<a xlink:href="#rule-term" class="link">
<g class="nonterminal">
<rect x="35" y="23" height="22" width="52"/>
<text x="61" y="39">
term</text>
</g>
</a>
<g class="optional">
<path d=" M 97 34 h 24 m -24 0 a 12 12 0 0 0 12 -12 v 0 a 12 12 0 0 1 12 -12 h 178 m -86 0 l -5 -5 m 0 10 l 5 -5 m 86 0 a 12 12 0 0 1 12 12 v 0 a 12 12 0 0 0 12 12 h -24"/>
<g class="repeat">
<path d=" M 121 34 h 12 m 154 0 h 12 m -12 0 a 12 12 0 0 1 12 12 v 30 a 12 12 0 0 1 -12 12 m 0 0 h -154 m 80 0 l 5 -5 m 0 10 l -5 -5 m -80 0 a 12 12 0 0 1 -12 -12 v -30 a 12 12 0 0 1 12 -12"/>
<g>
</g>
<g class="sequence">
<g class="choice">
<path d=" M 133 34 h 24 m 44 0 h 24"/>
<g class="terminal">
<rect x="157" y="23" height="22" width="44" rx="10" ry="10"/>
<text x="179" y="39">
&#x27;+&#x27;</text>
</g>
<path d=" M 133 34 a 12 12 0 0 1 12 12 v 9 m 68 0 v -9 a 12 12 0 0 1 12 -12"/>
<path d=" M 145 55 v 0 a 12 12 0 0 0 12 12 m 44 0 h 0 a 12 12 0 0 0 12 -12 v 0"/>
<g class="terminal">
<rect x="157" y="56" height="22" width="44" rx="10" ry="10"/>
<text x="179" y="72">
&#x27;-&#x27;</text>
</g>
</g>
<a xlink:href="#rule-term" class="link">
<g class="nonterminal">
<rect x="235" y="23" height="22" width="52"/>
<text x="261" y="39">
term</text>
</g>
</a>
<path d=" M 225 34 h 10"/>
</g>
</g>
</g>
<path d=" M 87 34 h 10"/>
</g>
<path d=" M 333 34 h 5 a 5 5 0 0 1 5 -5 a 5 5 0 0 1 5 5 a 5 5 0 0 1 -5 5 a 5 5 0 0 1 -5 -5"/>
<path d=" M 25 34 h 10"/>
<path d=" M 323 34 h 10"/>
</g>
</g>
</g>
<g id="rule-term" transform="translate(0, 138)">
<text x="10" y="18" style="font:bold 14px monospace">term</text>
<g transform="translate(0, 24)">
<g class="sequence">
<path d=" M 10 34 a 5 5 0 0 1 5 -5 a 5 5 0 0 1 5 5 a 5 5 0 0 1 -5 5 a 5 5 0 0 1 -5 -5 m 10 0 h 5"/>
<g class="sequence">
<a xlink:href="#rule-factor" class="link">
<g class="nonterminal">
<rect x="35" y="23" height="22" width="68"/>
<text x="69" y="39">
factor</text>
</g>
</a>
<g class="optional">
<path d=" M 113 34 h 24 m -24 0 a 12 12 0 0 0 12 -12 v 0 a 12 12 0 0 1 12 -12 h 194 m -94 0 l -5 -5 m 0 10 l 5 -5 m 94 0 a 12 12 0 0 1 12 12 v 0 a 12 12 0 0 0 12 12 h -24"/>
<g class="repeat">
<path d=" M 137 34 h 12 m 170 0 h 12 m -12 0 a 12 12 0 0 1 12 12 v 30 a 12 12 0 0 1 -12 12 m 0 0 h -170 m 88 0 l 5 -5 m 0 10 l -5 -5 m -88 0 a 12 12 0 0 1 -12 -12 v -30 a 12 12 0 0 1 12 -12"/>
<g>
</g>
<g class="sequence">
<g class="choice">
<path d=" M 149 34 h 24 m 44 0 h 24"/>
<g class="terminal">
<rect x="173" y="23" height="22" width="44" rx="10" ry="10"/>
<text x="195" y="39">
&#x27;*&#x27;</text>
</g>
<path d=" M 149 34 a 12 12 0 0 1 12 12 v 9 m 68 0 v -9 a 12 12 0 0 1 12 -12"/>
<path d=" M 161 55 v 0 a 12 12 0 0 0 12 12 m 44 0 h 0 a 12 12 0 0 0 12 -12 v 0"/>
<g class="terminal">
<rect x="173" y="56" height="22" width="44" rx="10" ry="10"/>
<text x="195" y="72">
&#x27;/&#x27;</text>
</g>
</g>
<a xlink:href="#rule-factor" class="link">
<g class="nonterminal">
<rect x="251" y="23" height="22" width="68"/>
<text x="285" y="39">
factor</text>
</g>
</a>
<path d=" M 241 34 h 10"/>
</g>
</g>
</g>
<path d=" M 103 34 h 10"/>
</g>
<path d=" M 365 34 h 5 a 5 5 0 0 1 5 -5 a 5 5 0 0 1 5 5 a 5 5 0 0 1 -5 5 a 5 5 0 0 1 -5 -5"/>
<path d=" M 25 34 h 10"/>
<path d=" M 355 34 h 10"/>
</g>
</g>
</g>
<g id="rule-factor" transform="translate(0, 276)">
<text x="10" y="18" style="font:bold 14px monospace">factor</text>
<g transform="translate(0, 24)">
<g class="sequence">
<path d=" M 10 21 a 5 5 0 0 1 5 -5 a 5 5 0 0 1 5 5 a 5 5 0 0 1 -5 5 a 5 5 0 0 1 -5 -5 m 10 0 h 5"/>
<g class="choice">
<path d=" M 35 21 h 24 m 84 0 h 100 m -47 0 l -5 -5 m 0 10 l 5 -5 m 47 0"/>
<g class="terminal">
<rect x="59" y="10" height="22" width="84" rx="10" ry="10"/>
<text x="101" y="26">
/[0-9]+/</text>
</g>
<path d=" M 35 21 a 12 12 0 0 1 12 12 v 9 m 184 0 v -9 a 12 12 0 0 1 12 -12"/>
<path d=" M 47 42 v 0 a 12 12 0 0 0 12 12 m 160 0 h 0 a 12 12 0 0 0 12 -12 v 0"/>
<g class="sequence">
<g class="terminal">
<rect x="59" y="43" height="22" width="44" rx="10" ry="10"/>
<text x="81" y="59">
&#x27;(&#x27;</text>
</g>
<a xlink:href="#rule-expr" class="link">
<g class="nonterminal">
<rect x="113" y="43" height="22" width="52"/>
<text x="139" y="59">
expr</text>
</g>
</a>
<g class="terminal">
<rect x="175" y="43" height="22" width="44" rx="10" ry="10"/>
<text x="197" y="59">
&#x27;)&#x27;</text>
</g>
<path d=" M 103 54 h 10"/>
<path d=" M 165 54 h 10"/>
</g>
</g>
<path d=" M 253 21 h 5 a 5 5 0 0 1 5 -5 a 5 5 0 0 1 5 5 a 5 5 0 0 1 -5 5 a 5 5 0 0 1 -5 -5"/>
<path d=" M 25 21 h 10"/>
<path d=" M 243 21 h 10"/>
</g>
</g>
</g>
</svg>